<?xml version="1.0" standalone="no"?>
<!DOCTYPE svg PUBLIC "-//W3C//DTD SVG 20010904//EN"
 "http://www.w3.org/TR/2001/REC-SVG-20010904/DTD/svg10.dtd">
<svg version="1.0" xmlns="http://www.w3.org/2000/svg"
 width="1150.000000pt" height="1150.000000pt" viewBox="0 0 1150.000000 1150.000000"
 preserveAspectRatio="xMidYMid meet">
<metadata>
Created by potrace 1.11, written by Peter Selinger 2001-2013
</metadata>
<g transform="translate(0.000000,1150.000000) scale(0.100000,-0.100000)"
fill="#000000" stroke="none">
<path d="M5480 9724 c-941 -48 -1782 -515 -2312 -1284 -481 -698 -634 -1559
-427 -2399 58 -235 124 -408 247 -646 217 -418 552 -793 952 -1067 847 -581
1956 -677 2895 -250 266 121 542 303 773 510 l70 63 16 -53 c54 -185 78 -363
78 -578 1 -325 -58 -603 -191 -900 -78 -174 -205 -372 -338 -528 l-29 -33 -94
56 c-857 511 -1940 550 -2835 103 -279 -140 -519 -312 -752 -541 l-132 -130
54 -62 c97 -111 320 -301 479 -408 l69 -47 101 97 c739 713 1863 812 2716 240
101 -68 207 -155 311 -254 l86 -83 76 53 c269 185 542 456 736 730 480 677
648 1531 465 2357 -36 163 -121 410 -199 582 l-66 146 45 91 c213 424 319 963
287 1456 -27 407 -117 754 -286 1109 l-45 96 29 58 c110 217 204 499 255 757
40 204 64 516 51 674 l-7 91 -393 0 -393 0 0 -187 c0 -120 -5 -230 -16 -303
-16 -116 -59 -309 -75 -337 -6 -12 -25 0 -92 62 -434 400 -1037 672 -1635 739
-138 16 -368 25 -474 20z m2810 -535 c0 -15 -132 -119 -210 -165 -77 -45 -219
-109 -226 -101 -14 14 19 39 120 90 63 32 154 89 202 126 80 61 114 76 114 50z
m-2390 -275 c544 -70 1058 -362 1406 -799 235 -297 391 -654 450 -1035 26
-169 24 -473 -4 -640 -41 -240 -98 -422 -199 -627 -226 -460 -622 -835 -1098
-1038 -666 -284 -1451 -208 -2053 197 -498 335 -826 843 -933 1443 -31 175
-32 506 -1 690 39 230 106 436 207 638 275 546 793 967 1375 1116 298 76 556
93 850 55z m-1235 -64 c-3 -5 -12 -10 -20 -10 -8 0 -18 -6 -22 -14 -4 -7 -39
-23 -78 -36 -321 -105 -701 -313 -945 -518 -52 -43 -139 -125 -192 -181 -54
-56 -101 -101 -105 -102 -5 0 -18 -10 -30 -21 -43 -40 -23 -6 42 72 281 337
710 618 1176 768 165 53 184 58 174 42z m3425 -3072 c-184 -311 -371 -507
-685 -717 -222 -149 -425 -248 -676 -329 -69 -23 -148 -43 -175 -46 -27 -3
-73 -10 -103 -16 -30 -5 -56 -8 -59 -5 -6 6 6 10 88 30 484 121 974 394 1298
724 100 102 222 253 293 362 29 44 54 77 57 75 2 -3 -15 -38 -38 -78z m0
-2488 c-40 -358 -185 -767 -401 -1131 -42 -69 -56 -85 -44 -50 3 11 8 29 10
41 2 12 22 55 44 96 216 401 348 835 368 1212 3 67 10 122 15 122 4 0 9 10 10
23 1 12 4 -30 6 -93 2 -63 -2 -162 -8 -220z m-1940 -550 c24 -8 23 -8 -7 -9
-18 -1 -33 -5 -33 -9 0 -5 -84 -12 -187 -15 -466 -15 -843 -128 -1186 -356
-60 -39 -105 -67 -102 -60 4 6 -4 3 -19 -6 -14 -10 -26 -13 -26 -7 0 12 133
110 235 172 261 160 610 267 935 286 58 4 107 8 109 10 8 7 256 2 281 -6z"/>
</g>
</svg>
